# xmcd CD database file
#
# Track frame offsets:
#	225
#	22403
#	45151
#	65221
#	84181
#	100506
#	119157
#	137305
#	160717
#	176364
#	197232
#	213036
#	230811
#	249065
#	261760
#
# Disc length: 3763 seconds
#
# Revision: 0
# Processed by: cddbd v1.5.1PL0 Copyright (c) Steve Scherf et al.
# Submitted via: CDex 1.51
#
DISCID=c30eb00f
DTITLE=Last Chance Dixieland Jazz Band - You Asked For It
DYEAR=1999
DGENRE=Jazz
TTITLE0=Down in Jungle Town
TTITLE1=Roll The Patrol
TTITLE2=Give Me the Sultan's Harem
TTITLE3=They're Moving Willie's Grave to Build a Sewer
TTITLE4=Radio
TTITLE5=That's Waht Reminds Me of You
TTITLE6=Blues My Naughty Sweetie Gives To Me
TTITLE7=Wise Guy
TTITLE8=Just a Giggolo
TTITLE9=It's a Sin To Tell A Lie * and ***
TTITLE10=Take Your Girlie To The Movies
TTITLE11=Poor Little Bird
TTITLE12=Iraqi Blues
TTITLE13=Explosive Personality
TTITLE14=Right Next Door
EXTD=YEAR: 1999
EXTT0=
EXTT1=
EXTT2=
EXTT3=
EXTT4=
EXTT5=
EXTT6=
EXTT7=
EXTT8=
EXTT9=
EXTT10=
EXTT11=
EXTT12=
EXTT13=
EXTT14=
PLAYORDER=
